# xmcd
#
# Track frame offsets:
# 150
# 19922
# 35598
# 57056
# 73784
# 84288
#
# Disc length: 1347 seconds
#
#
# Revision: 0
# Processed by: cddbd v1.5.2PL0 Copyright (c) Steve Scherf et al.
# Submitted via: Nero 7, 2, 3, 2 
#
DISCID=46054106
DTITLE=Col Finley - Col MP3
DYEAR=2008
DGENRE=Country
TTITLE0=1
TTITLE1=2
TTITLE2=3
TTITLE3=4
TTITLE4=5
TTITLE5=6
EXTD=
EXTT0=
EXTT1=
EXTT2=
EXTT3=
EXTT4=
EXTT5=
PLAYORDER=
